# xmcd
#
# Track frame offsets:
#	150
#	16581
#	28693
#	44837
#	57370
#	70574
#	84701
#	100898
#	113685
#	130135
#	142570
#	158956
#	171491
#	184786
#	198916
#	215062
#
# Disc length: 3036 seconds
#
# Revision: 0
# Processed by: cddbd v1.5.2PL0 Copyright (c) Steve Scherf et al.
# Submitted via: audiograbber 1.83.01
#
DISCID=db0bda10
DTITLE=Various Artist - SDK9061
DYEAR=1900
DGENRE=Mixzed
TTITLE0=Willy Nelson Vpca - - Always On My Mind
TTITLE1=Charlie Rich Vocal - The Most Beautiful Girl
TTITLE2=Kenny Rogers Vocal - Lucille
TTITLE3=I Walk The Line Vocal - Johnny Cash
TTITLE4=Hank Williams Vocal - Hey Good Lookin
TTITLE5=Conway Twitty Vocal - Slow Hand
TTITLE6=Kenny Rogers Vocal - The Gambler
TTITLE7=Hank Williams Vocal - Your Cheatin' Heart
TTITLE8=Willy Nelson - Always On My Mind
TTITLE9=Charlie Rich - The Most Beautiful Girl
TTITLE10=Kenny Rogers - Lucille
TTITLE11=I Walk The Line - Johnny Cash
TTITLE12=Hank Williams - Hey Good Lookin'
TTITLE13=Conway Twitty - Slow Hand
TTITLE14=Kenny Rogers - The Gambler
TTITLE15=Hank Williams - Your Cheatin' Heart
EXTD=
EXTT0=
EXTT1=
EXTT2=
EXTT3=
EXTT4=
EXTT5=
EXTT6=
EXTT7=
EXTT8=
EXTT9=
EXTT10=
EXTT11=
EXTT12=
EXTT13=
EXTT14=
EXTT15=
PLAYORDER=
